# Blender 4.3.2
# www.blender.org
mtllib Wheel.mtl
o Torus.001
v 1.201577 0.000000 -0.344547
v 1.145354 0.160697 -0.328425
v 1.002992 0.246202 -0.287603
v 0.841104 0.216506 -0.241183
v 0.735439 0.085505 -0.210884
v 0.735439 -0.085505 -0.210884
v 0.841104 -0.216506 -0.241183
v 1.002992 -0.246202 -0.287603
v 1.145354 -0.160697 -0.328425
v 0.868323 0.000000 -0.899175
v 0.827693 0.160697 -0.857102
v 0.724815 0.246202 -0.750568
v 0.607826 0.216506 -0.629422
v 0.531467 0.085505 -0.550350
v 0.531467 -0.085505 -0.550350
v 0.607826 -0.216506 -0.629422
v 0.724815 -0.246202 -0.750568
v 0.827693 -0.160697 -0.857102
v 0.302402 0.000000 -1.212870
v 0.288253 0.160697 -1.156118
v 0.252424 0.246202 -1.012418
v 0.211682 0.216506 -0.849009
v 0.185089 0.085505 -0.742351
v 0.185089 -0.085505 -0.742351
v 0.211682 -0.216506 -0.849009
v 0.252424 -0.246202 -1.012418
v 0.288253 -0.160697 -1.156118
v -0.344547 0.000000 -1.201577
v -0.328425 0.160697 -1.145354
v -0.287603 0.246202 -1.002992
v -0.241183 0.216506 -0.841104
v -0.210884 0.085505 -0.735439
v -0.210884 -0.085505 -0.735439
v -0.241183 -0.216506 -0.841104
v -0.287603 -0.246202 -1.002992
v -0.328425 -0.160697 -1.145354
v -0.899175 0.000000 -0.868323
v -0.857101 0.160697 -0.827693
v -0.750568 0.246202 -0.724815
v -0.629422 0.216506 -0.607826
v -0.550350 0.085505 -0.531467
v -0.550350 -0.085505 -0.531467
v -0.629422 -0.216506 -0.607826
v -0.750568 -0.246202 -0.724815
v -0.857101 -0.160697 -0.827693
v -1.212870 0.000000 -0.302403
v -1.156118 0.160697 -0.288253
v -1.012418 0.246202 -0.252424
v -0.849009 0.216506 -0.211682
v -0.742351 0.085505 -0.185089
v -0.742351 -0.085505 -0.185089
v -0.849009 -0.216506 -0.211682
v -1.012418 -0.246202 -0.252424
v -1.156118 -0.160697 -0.288253
v -1.201577 0.000000 0.344547
v -1.145354 0.160697 0.328425
v -1.002992 0.246202 0.287603
v -0.841104 0.216506 0.241183
v -0.735439 0.085505 0.210884
v -0.735439 -0.085505 0.210884
v -0.841104 -0.216506 0.241183
v -1.002992 -0.246202 0.287603
v -1.145354 -0.160697 0.328425
v -0.868323 0.000000 0.899175
v -0.827693 0.160697 0.857101
v -0.724815 0.246202 0.750568
v -0.607826 0.216506 0.629422
v -0.531467 0.085505 0.550350
v -0.531467 -0.085505 0.550350
v -0.607826 -0.216506 0.629422
v -0.724815 -0.246202 0.750568
v -0.827693 -0.160697 0.857101
v -0.302402 0.000000 1.212870
v -0.288252 0.160697 1.156118
v -0.252424 0.246202 1.012418
v -0.211682 0.216506 0.849009
v -0.185089 0.085505 0.742351
v -0.185089 -0.085505 0.742351
v -0.211682 -0.216506 0.849009
v -0.252424 -0.246202 1.012418
v -0.288252 -0.160697 1.156118
v 0.344547 0.000000 1.201577
v 0.328425 0.160697 1.145354
v 0.287603 0.246202 1.002992
v 0.241183 0.216506 0.841104
v 0.210884 0.085505 0.735439
v 0.210884 -0.085505 0.735439
v 0.241183 -0.216506 0.841104
v 0.287603 -0.246202 1.002992
v 0.328425 -0.160697 1.145354
v 0.899175 0.000000 0.868323
v 0.857101 0.160697 0.827693
v 0.750568 0.246202 0.724815
v 0.629422 0.216506 0.607826
v 0.550350 0.085505 0.531467
v 0.550350 -0.085505 0.531467
v 0.629422 -0.216506 0.607826
v 0.750568 -0.246202 0.724815
v 0.857101 -0.160697 0.827693
v 1.212870 0.000000 0.302402
v 1.156118 0.160697 0.288253
v 1.012418 0.246202 0.252424
v 0.849009 0.216506 0.211682
v 0.742351 0.085505 0.185089
v 0.742351 -0.085505 0.185089
v 0.849009 -0.216506 0.211682
v 1.012418 -0.246202 0.252424
v 1.156118 -0.160697 0.288253
v -0.009115 0.085505 0.005477
v 0.735439 0.000000 -0.210884
v 0.531467 0.000000 -0.550350
v -0.009115 -0.085505 0.005477
v -0.009115 0.000000 0.005477
v -0.060109 0.085505 -0.079389
v 0.735439 -0.042753 -0.210884
v 0.531467 -0.042753 -0.550350
v -0.060109 -0.085505 -0.079389
v 0.041878 0.085505 0.090344
v 0.735439 0.042753 -0.210884
v 0.531467 0.042753 -0.550350
v 0.041878 -0.085505 0.090344
v -0.009115 -0.042753 0.005477
v -0.009115 0.042753 0.005477
v 0.041878 0.000000 0.090344
v -0.060109 0.000000 -0.079389
v -0.060109 0.042753 -0.079389
v 0.041878 0.042753 0.090344
v 0.041878 -0.042753 0.090344
v -0.060109 -0.042753 -0.079389
v -0.185089 0.000000 0.742351
v -0.001463 0.085505 -0.083811
v 0.210884 0.000000 0.735439
v -0.001463 -0.085505 -0.083811
v -0.001463 0.000000 -0.083811
v -0.185089 -0.042753 0.742351
v 0.097530 0.085505 -0.085538
v 0.210884 -0.042753 0.735439
v 0.097530 -0.085505 -0.085538
v -0.185089 0.042753 0.742351
v -0.100456 0.085505 -0.082083
v 0.210884 0.042753 0.735439
v -0.100456 -0.085505 -0.082083
v -0.001463 -0.042753 -0.083811
v -0.001463 0.042753 -0.083811
v -0.100456 0.000000 -0.082083
v 0.097530 0.000000 -0.085538
v 0.097530 0.042753 -0.085538
v -0.100456 0.042753 -0.082083
v -0.100456 -0.042753 -0.082083
v 0.097530 -0.042753 -0.085538
v -0.550350 0.000000 -0.531467
v 0.021079 0.085505 0.011685
v -0.742351 0.000000 -0.185089
v 0.021079 -0.085505 0.011685
v 0.021079 0.000000 0.011685
v -0.550350 -0.042753 -0.531467
v -0.026921 0.085505 0.098279
v -0.742351 -0.042753 -0.185089
v -0.026921 -0.085505 0.098279
v -0.550350 0.042753 -0.531467
v 0.069080 0.085505 -0.074910
v -0.742351 0.042753 -0.185089
v 0.069080 -0.085505 -0.074910
v 0.021079 -0.042753 0.011685
v 0.021079 0.042753 0.011685
v 0.069080 0.000000 -0.074910
v -0.026921 0.000000 0.098279
v -0.026921 0.042753 0.098279
v 0.069080 0.042753 -0.074910
v 0.069080 -0.042753 -0.074910
v -0.026921 -0.042753 0.098279
v -0.000000 -0.129029 -0.328654
v -0.000000 0.104223 -0.328654
v 0.064117 -0.129029 -0.322339
v 0.064117 0.104223 -0.322339
v 0.125770 -0.129029 -0.303637
v 0.125770 0.104223 -0.303637
v 0.182590 -0.129029 -0.273266
v 0.182590 0.104223 -0.273266
v 0.232393 -0.129029 -0.232393
v 0.232393 0.104223 -0.232393
v 0.273266 -0.129029 -0.182590
v 0.273266 0.104223 -0.182590
v 0.303637 -0.129029 -0.125770
v 0.303637 0.104223 -0.125770
v 0.322339 -0.129029 -0.064117
v 0.322339 0.104223 -0.064117
v 0.328654 -0.129029 0.000000
v 0.328654 0.104223 0.000000
v 0.322339 -0.129029 0.064117
v 0.322339 0.104223 0.064117
v 0.303637 -0.129029 0.125770
v 0.303637 0.104223 0.125770
v 0.273266 -0.129029 0.182590
v 0.273266 0.104223 0.182590
v 0.232393 -0.129029 0.232393
v 0.232393 0.104223 0.232393
v 0.182590 -0.129029 0.273266
v 0.182590 0.104223 0.273266
v 0.125770 -0.129029 0.303637
v 0.125770 0.104223 0.303637
v 0.064117 -0.129029 0.322339
v 0.064117 0.104223 0.322339
v -0.000000 -0.129029 0.328654
v -0.000000 0.104223 0.328654
v -0.064117 -0.129029 0.322339
v -0.064117 0.104223 0.322339
v -0.125770 -0.129029 0.303637
v -0.125770 0.104223 0.303637
v -0.182590 -0.129029 0.273266
v -0.182590 0.104223 0.273266
v -0.232393 -0.129029 0.232393
v -0.232393 0.104223 0.232393
v -0.273266 -0.129029 0.182590
v -0.273266 0.104223 0.182590
v -0.303637 -0.129029 0.125770
v -0.303637 0.104223 0.125770
v -0.322339 -0.129029 0.064117
v -0.322339 0.104223 0.064117
v -0.328654 -0.129029 0.000000
v -0.328654 0.104223 0.000000
v -0.322339 -0.129029 -0.064117
v -0.322339 0.104223 -0.064117
v -0.303637 -0.129029 -0.125770
v -0.303637 0.104223 -0.125770
v -0.273266 -0.129029 -0.182590
v -0.273266 0.104223 -0.182590
v -0.232393 -0.129029 -0.232393
v -0.232393 0.104223 -0.232393
v -0.182590 -0.129029 -0.273266
v -0.182590 0.104223 -0.273266
v -0.125770 -0.129029 -0.303637
v -0.125770 0.104223 -0.303637
v -0.064117 -0.129029 -0.322339
v -0.064117 0.104223 -0.322339
vn 0.8086 0.3317 -0.4859
vn 0.4398 0.8584 -0.2642
vn -0.1539 0.9837 0.0925
vn -0.1743 0.9791 0.1047
vn -0.6228 -0.0000 -0.7824
vn -0.1743 -0.9791 0.1047
vn -0.1539 -0.9837 0.0925
vn 0.4398 -0.8584 -0.2642
vn 0.8086 -0.3317 -0.4859
vn 0.4574 0.3317 -0.8251
vn 0.2487 0.8584 -0.4487
vn -0.0871 0.9837 0.1571
vn -0.3766 0.6297 0.6795
vn -0.4848 -0.0000 0.8746
vn -0.3766 -0.6297 0.6795
vn -0.0871 -0.9837 0.1571
vn 0.2487 -0.8584 -0.4487
vn 0.4574 -0.3317 -0.8251
vn -0.0165 0.3317 -0.9433
vn -0.0090 0.8584 -0.5130
vn 0.0031 0.9837 0.1796
vn 0.0136 0.6297 0.7768
vn 0.0175 -0.0000 0.9998
vn 0.0136 -0.6297 0.7768
vn 0.0031 -0.9837 0.1796
vn -0.0090 -0.8584 -0.5130
vn -0.0165 -0.3317 -0.9433
vn -0.4859 0.3317 -0.8086
vn -0.2642 0.8584 -0.4398
vn 0.0925 0.9837 0.1539
vn 0.4001 0.6297 0.6659
vn 0.5150 -0.0000 0.8572
vn 0.4001 -0.6297 0.6659
vn 0.0925 -0.9837 0.1539
vn -0.2642 -0.8584 -0.4398
vn -0.4859 -0.3317 -0.8086
vn -0.8251 0.3317 -0.4574
vn -0.4487 0.8584 -0.2487
vn 0.1571 0.9837 0.0871
vn 0.1753 0.9797 0.0972
vn -0.3682 -0.0000 0.9297
vn 0.1753 -0.9797 0.0972
vn 0.1571 -0.9837 0.0871
vn -0.4487 -0.8584 -0.2487
vn -0.8251 -0.3317 -0.4574
vn -0.9433 0.3317 0.0165
vn -0.5130 0.8584 0.0090
vn 0.1796 0.9837 -0.0031
vn 0.7768 0.6297 -0.0136
vn 0.9998 -0.0000 -0.0175
vn 0.7768 -0.6297 -0.0136
vn 0.1796 -0.9837 -0.0031
vn -0.5130 -0.8584 0.0090
vn -0.9433 -0.3317 0.0165
vn -0.8086 0.3317 0.4859
vn -0.4398 0.8584 0.2642
vn 0.1539 0.9837 -0.0925
vn 0.6659 0.6297 -0.4001
vn 0.8572 -0.0000 -0.5150
vn 0.6659 -0.6297 -0.4001
vn 0.1539 -0.9837 -0.0925
vn -0.4398 -0.8584 0.2642
vn -0.8086 -0.3317 0.4859
vn -0.4574 0.3317 0.8251
vn -0.2487 0.8584 0.4487
vn 0.0871 0.9837 -0.1571
vn 0.3766 0.6297 -0.6795
vn 0.4848 -0.0000 -0.8746
vn 0.3766 -0.6297 -0.6795
vn 0.0871 -0.9837 -0.1571
vn -0.2487 -0.8584 0.4487
vn -0.4574 -0.3317 0.8251
vn 0.0165 0.3317 0.9433
vn 0.0090 0.8584 0.5130
vn -0.0031 0.9837 -0.1796
vn -0.0033 0.9820 -0.1886
vn 0.9906 -0.0000 -0.1368
vn -0.0033 -0.9820 -0.1886
vn -0.0031 -0.9837 -0.1796
vn 0.0090 -0.8584 0.5130
vn 0.0165 -0.3317 0.9433
vn 0.4859 0.3317 0.8086
vn 0.2642 0.8584 0.4398
vn -0.0925 0.9837 -0.1539
vn -0.4001 0.6297 -0.6659
vn -0.5150 -0.0000 -0.8572
vn -0.4001 -0.6297 -0.6659
vn -0.0925 -0.9837 -0.1539
vn 0.2642 -0.8584 0.4398
vn 0.4859 -0.3317 0.8086
vn 0.8251 0.3317 0.4574
vn 0.4487 0.8584 0.2487
vn -0.1571 0.9837 -0.0871
vn -0.6795 0.6297 -0.3766
vn -0.8746 -0.0000 -0.4848
vn -0.6795 -0.6297 -0.3766
vn -0.1571 -0.9837 -0.0871
vn 0.4487 -0.8584 0.2487
vn 0.8251 -0.3317 0.4574
vn 0.9433 0.3317 -0.0165
vn 0.5130 0.8584 -0.0090
vn -0.1796 0.9837 0.0031
vn -0.7768 0.6297 0.0136
vn -0.9998 -0.0000 0.0175
vn -0.7768 -0.6297 0.0136
vn -0.1796 -0.9837 0.0031
vn 0.5130 -0.8584 -0.0090
vn 0.9433 -0.3317 -0.0165
vn -0.8572 -0.0000 0.5150
vn 0.3984 -0.0000 0.9172
vn -0.0175 -0.0000 -0.9998
vn -0.9948 -0.0000 -0.1021
vn 0.8746 -0.0000 0.4848
vn 0.5933 -0.0000 -0.8050
vn 0.0980 -0.0000 -0.9952
vn 0.2903 -0.0000 -0.9569
vn 0.4714 -0.0000 -0.8819
vn 0.6344 -0.0000 -0.7730
vn 0.7730 -0.0000 -0.6344
vn 0.8819 -0.0000 -0.4714
vn 0.9569 -0.0000 -0.2903
vn 0.9952 -0.0000 -0.0980
vn 0.9952 -0.0000 0.0980
vn 0.9569 -0.0000 0.2903
vn 0.8819 -0.0000 0.4714
vn 0.7730 -0.0000 0.6344
vn 0.6344 -0.0000 0.7730
vn 0.4714 -0.0000 0.8819
vn 0.2903 -0.0000 0.9569
vn 0.0980 -0.0000 0.9952
vn -0.0980 -0.0000 0.9952
vn -0.2903 -0.0000 0.9569
vn -0.4714 -0.0000 0.8819
vn -0.6344 -0.0000 0.7730
vn -0.7730 -0.0000 0.6344
vn -0.8819 -0.0000 0.4714
vn -0.9569 -0.0000 0.2903
vn -0.9952 -0.0000 0.0980
vn -0.9952 -0.0000 -0.0980
vn -0.9569 -0.0000 -0.2903
vn -0.8819 -0.0000 -0.4714
vn -0.7730 -0.0000 -0.6344
vn -0.6344 -0.0000 -0.7730
vn -0.4714 -0.0000 -0.8819
vn -0.0000 1.0000 -0.0000
vn -0.2903 -0.0000 -0.9569
vn -0.0980 -0.0000 -0.9952
vn -0.0000 -1.0000 -0.0000
vt 0.500000 0.555556
vt 0.583333 0.555556
vt 0.583333 0.666667
vt 0.500000 0.666667
vt 0.583333 0.777778
vt 0.500000 0.777778
vt 0.583333 0.888889
vt 0.500000 0.888889
vt 0.583333 1.000000
vt 0.562500 1.000000
vt 0.541667 1.000000
vt 0.520833 1.000000
vt 0.500000 1.000000
vt 0.562500 0.083333
vt 0.583333 0.083333
vt 0.583333 0.111111
vt 0.562500 0.111111
vt 0.500000 0.111111
vt 0.520833 0.111111
vt 0.541667 0.111111
vt 0.583333 0.222222
vt 0.500000 0.222222
vt 0.583333 0.333333
vt 0.500000 0.333333
vt 0.583333 0.444444
vt 0.500000 0.444444
vt 0.666667 0.555556
vt 0.666667 0.666667
vt 0.666667 0.777778
vt 0.666667 0.888889
vt 0.666667 1.000000
vt 0.583333 0.000000
vt 0.666667 0.000000
vt 0.666667 0.111111
vt 0.583333 0.055556
vt 0.583333 0.027778
vt 0.666667 0.222222
vt 0.666667 0.333333
vt 0.666667 0.444444
vt 0.750000 0.555556
vt 0.750000 0.666667
vt 0.750000 0.777778
vt 0.750000 0.888889
vt 0.750000 1.000000
vt 0.750000 0.000000
vt 0.750000 0.111111
vt 0.750000 0.222222
vt 0.750000 0.333333
vt 0.750000 0.444444
vt 0.833333 0.555556
vt 0.833333 0.666667
vt 0.833333 0.777778
vt 0.833333 0.888889
vt 0.833333 1.000000
vt 0.833333 0.000000
vt 0.833333 0.027778
vt 0.833333 0.055556
vt 0.833333 0.083333
vt 0.833333 0.111111
vt 0.833333 0.222222
vt 0.833333 0.333333
vt 0.833333 0.444444
vt 0.916667 0.555556
vt 0.916667 0.666667
vt 0.916667 0.777778
vt 0.916667 0.888889
vt 0.916667 1.000000
vt 0.895833 1.000000
vt 0.875000 1.000000
vt 0.854167 1.000000
vt 0.895833 0.083333
vt 0.916667 0.083333
vt 0.916667 0.111111
vt 0.895833 0.111111
vt 0.854167 0.111111
vt 0.875000 0.111111
vt 0.916667 0.222222
vt 0.916667 0.333333
vt 0.916667 0.444444
vt 1.000000 0.555556
vt 1.000000 0.666667
vt 1.000000 0.777778
vt 1.000000 0.888889
vt 1.000000 1.000000
vt 0.916667 0.000000
vt 1.000000 0.000000
vt 1.000000 0.111111
vt 0.916667 0.055556
vt 0.916667 0.027778
vt 1.000000 0.222222
vt 1.000000 0.333333
vt 1.000000 0.444444
vt 0.000000 0.555556
vt 0.083333 0.555556
vt 0.083333 0.666667
vt 0.000000 0.666667
vt 0.083333 0.777778
vt 0.000000 0.777778
vt 0.083333 0.888889
vt 0.000000 0.888889
vt 0.083333 1.000000
vt 0.000000 1.000000
vt 0.000000 0.000000
vt 0.083333 0.000000
vt 0.083333 0.111111
vt 0.000000 0.111111
vt 0.083333 0.222222
vt 0.000000 0.222222
vt 0.083333 0.333333
vt 0.000000 0.333333
vt 0.083333 0.444444
vt 0.000000 0.444444
vt 0.166667 0.555556
vt 0.166667 0.666667
vt 0.166667 0.777778
vt 0.166667 0.888889
vt 0.166667 1.000000
vt 0.166667 0.000000
vt 0.166667 0.027778
vt 0.166667 0.055556
vt 0.166667 0.083333
vt 0.166667 0.111111
vt 0.166667 0.222222
vt 0.166667 0.333333
vt 0.166667 0.444444
vt 0.250000 0.555556
vt 0.250000 0.666667
vt 0.250000 0.777778
vt 0.250000 0.888889
vt 0.250000 1.000000
vt 0.229167 1.000000
vt 0.208333 1.000000
vt 0.187500 1.000000
vt 0.229167 0.083333
vt 0.250000 0.083333
vt 0.250000 0.111111
vt 0.229167 0.111111
vt 0.187500 0.111111
vt 0.208333 0.111111
vt 0.250000 0.222222
vt 0.250000 0.333333
vt 0.250000 0.444444
vt 0.333333 0.555556
vt 0.333333 0.666667
vt 0.333333 0.777778
vt 0.333333 0.888889
vt 0.333333 1.000000
vt 0.250000 0.000000
vt 0.333333 0.000000
vt 0.333333 0.111111
vt 0.250000 0.055556
vt 0.250000 0.027778
vt 0.333333 0.222222
vt 0.333333 0.333333
vt 0.333333 0.444444
vt 0.416667 0.555556
vt 0.416667 0.666667
vt 0.416667 0.777778
vt 0.416667 0.888889
vt 0.416667 1.000000
vt 0.416667 0.000000
vt 0.416667 0.111111
vt 0.416667 0.222222
vt 0.416667 0.333333
vt 0.416667 0.444444
vt 0.500000 0.000000
vt 0.500000 0.027778
vt 0.500000 0.055556
vt 0.500000 0.083333
vt 0.520833 0.083333
vt 0.541667 0.083333
vt 0.520833 0.027778
vt 0.541667 0.027778
vt 0.541667 0.055556
vt 0.520833 0.055556
vt 0.562500 0.027778
vt 0.562500 0.055556
vt 0.541667 0.000000
vt 0.562500 0.000000
vt 0.520833 0.000000
vt 0.187500 0.083333
vt 0.208333 0.083333
vt 0.187500 0.027778
vt 0.208333 0.027778
vt 0.208333 0.055556
vt 0.187500 0.055556
vt 0.229167 0.027778
vt 0.229167 0.055556
vt 0.208333 0.000000
vt 0.229167 0.000000
vt 0.187500 0.000000
vt 0.854167 0.083333
vt 0.875000 0.083333
vt 0.854167 0.027778
vt 0.875000 0.027778
vt 0.875000 0.055556
vt 0.854167 0.055556
vt 0.895833 0.027778
vt 0.895833 0.055556
vt 0.875000 0.000000
vt 0.895833 0.000000
vt 0.854167 0.000000
vt 1.000000 0.500000
vt 0.968750 1.000000
vt 0.968750 0.500000
vt 0.937500 1.000000
vt 0.937500 0.500000
vt 0.906250 1.000000
vt 0.906250 0.500000
vt 0.875000 0.500000
vt 0.843750 1.000000
vt 0.843750 0.500000
vt 0.812500 1.000000
vt 0.812500 0.500000
vt 0.781250 1.000000
vt 0.781250 0.500000
vt 0.750000 0.500000
vt 0.718750 1.000000
vt 0.718750 0.500000
vt 0.687500 1.000000
vt 0.687500 0.500000
vt 0.656250 1.000000
vt 0.656250 0.500000
vt 0.625000 1.000000
vt 0.625000 0.500000
vt 0.593750 1.000000
vt 0.593750 0.500000
vt 0.562500 0.500000
vt 0.531250 1.000000
vt 0.531250 0.500000
vt 0.500000 0.500000
vt 0.468750 1.000000
vt 0.468750 0.500000
vt 0.437500 1.000000
vt 0.437500 0.500000
vt 0.406250 1.000000
vt 0.406250 0.500000
vt 0.375000 1.000000
vt 0.375000 0.500000
vt 0.343750 1.000000
vt 0.343750 0.500000
vt 0.312500 1.000000
vt 0.312500 0.500000
vt 0.281250 1.000000
vt 0.281250 0.500000
vt 0.250000 0.500000
vt 0.218750 1.000000
vt 0.218750 0.500000
vt 0.187500 0.500000
vt 0.156250 1.000000
vt 0.156250 0.500000
vt 0.125000 1.000000
vt 0.125000 0.500000
vt 0.093750 1.000000
vt 0.093750 0.500000
vt 0.062500 1.000000
vt 0.062500 0.500000
vt 0.296822 0.485388
vt 0.250000 0.490000
vt 0.203178 0.485388
vt 0.158156 0.471731
vt 0.116663 0.449553
vt 0.080294 0.419706
vt 0.050447 0.383337
vt 0.028269 0.341844
vt 0.014612 0.296822
vt 0.010000 0.250000
vt 0.014612 0.203178
vt 0.028269 0.158156
vt 0.050447 0.116663
vt 0.080294 0.080294
vt 0.116663 0.050447
vt 0.158156 0.028269
vt 0.203178 0.014612
vt 0.250000 0.010000
vt 0.296822 0.014612
vt 0.341844 0.028269
vt 0.383337 0.050447
vt 0.419706 0.080294
vt 0.449553 0.116663
vt 0.471731 0.158156
vt 0.485388 0.203178
vt 0.490000 0.250000
vt 0.485388 0.296822
vt 0.471731 0.341844
vt 0.449553 0.383337
vt 0.419706 0.419706
vt 0.383337 0.449553
vt 0.341844 0.471731
vt 0.031250 1.000000
vt 0.031250 0.500000
vt 0.000000 1.000000
vt 0.000000 0.500000
vt 0.750000 0.490000
vt 0.796822 0.485388
vt 0.841844 0.471731
vt 0.883337 0.449553
vt 0.919706 0.419706
vt 0.949553 0.383337
vt 0.971731 0.341844
vt 0.985388 0.296822
vt 0.990000 0.250000
vt 0.985388 0.203178
vt 0.971731 0.158156
vt 0.949553 0.116663
vt 0.919706 0.080294
vt 0.883337 0.050447
vt 0.841844 0.028269
vt 0.796822 0.014612
vt 0.750000 0.010000
vt 0.703178 0.014612
vt 0.658156 0.028269
vt 0.616663 0.050447
vt 0.580294 0.080294
vt 0.550447 0.116663
vt 0.528269 0.158156
vt 0.514612 0.203178
vt 0.510000 0.250000
vt 0.514612 0.296822
vt 0.528269 0.341844
vt 0.550447 0.383337
vt 0.580294 0.419706
vt 0.616663 0.449553
vt 0.658156 0.471731
vt 0.703178 0.485388
s 0
usemtl Material.001
f 1/1/1 10/2/1 11/3/1 2/4/1
f 2/4/2 11/3/2 12/5/2 3/6/2
f 3/6/3 12/5/3 13/7/3 4/8/3
f 4/8/4 13/7/4 14/9/4 114/10/4 109/11/4 118/12/4 5/13/4
f 129/14/5 116/15/5 15/16/5 117/17/5
f 6/18/6 121/19/6 112/20/6 117/17/6 15/16/6 16/21/6 7/22/6
f 7/22/7 16/21/7 17/23/7 8/24/7
f 8/24/8 17/23/8 18/25/8 9/26/8
f 9/26/9 18/25/9 10/2/9 1/1/9
f 10/2/10 19/27/10 20/28/10 11/3/10
f 11/3/11 20/28/11 21/29/11 12/5/11
f 12/5/12 21/29/12 22/30/12 13/7/12
f 13/7/13 22/30/13 23/31/13 14/9/13
f 14/32/14 23/33/14 24/34/14 15/16/14 116/15/14 111/35/14 120/36/14
f 15/16/15 24/34/15 25/37/15 16/21/15
f 16/21/16 25/37/16 26/38/16 17/23/16
f 17/23/17 26/38/17 27/39/17 18/25/17
f 18/25/18 27/39/18 19/27/18 10/2/18
f 19/27/19 28/40/19 29/41/19 20/28/19
f 20/28/20 29/41/20 30/42/20 21/29/20
f 21/29/21 30/42/21 31/43/21 22/30/21
f 22/30/22 31/43/22 32/44/22 23/31/22
f 23/33/23 32/45/23 33/46/23 24/34/23
f 24/34/24 33/46/24 34/47/24 25/37/24
f 25/37/25 34/47/25 35/48/25 26/38/25
f 26/38/26 35/48/26 36/49/26 27/39/26
f 27/39/27 36/49/27 28/40/27 19/27/27
f 28/40/28 37/50/28 38/51/28 29/41/28
f 29/41/29 38/51/29 39/52/29 30/42/29
f 30/42/30 39/52/30 40/53/30 31/43/30
f 31/43/31 40/53/31 41/54/31 32/44/31
f 32/45/32 41/55/32 160/56/32 151/57/32 156/58/32 42/59/32 33/46/32
f 33/46/33 42/59/33 43/60/33 34/47/33
f 34/47/34 43/60/34 44/61/34 35/48/34
f 35/48/35 44/61/35 45/62/35 36/49/35
f 36/49/36 45/62/36 37/50/36 28/40/36
f 37/50/37 46/63/37 47/64/37 38/51/37
f 38/51/38 47/64/38 48/65/38 39/52/38
f 39/52/39 48/65/39 49/66/39 40/53/39
f 40/53/40 49/66/40 50/67/40 157/68/40 152/69/40 161/70/40 41/54/40
f 171/71/41 158/72/41 51/73/41 159/74/41
f 42/59/42 163/75/42 154/76/42 159/74/42 51/73/42 52/77/42 43/60/42
f 43/60/43 52/77/43 53/78/43 44/61/43
f 44/61/44 53/78/44 54/79/44 45/62/44
f 45/62/45 54/79/45 46/63/45 37/50/45
f 46/63/46 55/80/46 56/81/46 47/64/46
f 47/64/47 56/81/47 57/82/47 48/65/47
f 48/65/48 57/82/48 58/83/48 49/66/48
f 49/66/49 58/83/49 59/84/49 50/67/49
f 50/85/50 59/86/50 60/87/50 51/73/50 158/72/50 153/88/50 162/89/50
f 51/73/51 60/87/51 61/90/51 52/77/51
f 52/77/52 61/90/52 62/91/52 53/78/52
f 53/78/53 62/91/53 63/92/53 54/79/53
f 54/79/54 63/92/54 55/80/54 46/63/54
f 55/93/55 64/94/55 65/95/55 56/96/55
f 56/96/56 65/95/56 66/97/56 57/98/56
f 57/98/57 66/97/57 67/99/57 58/100/57
f 58/100/58 67/99/58 68/101/58 59/102/58
f 59/103/59 68/104/59 69/105/59 60/106/59
f 60/106/60 69/105/60 70/107/60 61/108/60
f 61/108/61 70/107/61 71/109/61 62/110/61
f 62/110/62 71/109/62 72/111/62 63/112/62
f 63/112/63 72/111/63 64/94/63 55/93/63
f 64/94/64 73/113/64 74/114/64 65/95/64
f 65/95/65 74/114/65 75/115/65 66/97/65
f 66/97/66 75/115/66 76/116/66 67/99/66
f 67/99/67 76/116/67 77/117/67 68/101/67
f 68/104/68 77/118/68 139/119/68 130/120/68 135/121/68 78/122/68 69/105/68
f 69/105/69 78/122/69 79/123/69 70/107/69
f 70/107/70 79/123/70 80/124/70 71/109/70
f 71/109/71 80/124/71 81/125/71 72/111/71
f 72/111/72 81/125/72 73/113/72 64/94/72
f 73/113/73 82/126/73 83/127/73 74/114/73
f 74/114/74 83/127/74 84/128/74 75/115/74
f 75/115/75 84/128/75 85/129/75 76/116/75
f 76/116/76 85/129/76 86/130/76 136/131/76 131/132/76 140/133/76 77/117/76
f 150/134/77 137/135/77 87/136/77 138/137/77
f 78/122/78 142/138/78 133/139/78 138/137/78 87/136/78 88/140/78 79/123/78
f 79/123/79 88/140/79 89/141/79 80/124/79
f 80/124/80 89/141/80 90/142/80 81/125/80
f 81/125/81 90/142/81 82/126/81 73/113/81
f 82/126/82 91/143/82 92/144/82 83/127/82
f 83/127/83 92/144/83 93/145/83 84/128/83
f 84/128/84 93/145/84 94/146/84 85/129/84
f 85/129/85 94/146/85 95/147/85 86/130/85
f 86/148/86 95/149/86 96/150/86 87/136/86 137/135/86 132/151/86 141/152/86
f 87/136/87 96/150/87 97/153/87 88/140/87
f 88/140/88 97/153/88 98/154/88 89/141/88
f 89/141/89 98/154/89 99/155/89 90/142/89
f 90/142/90 99/155/90 91/143/90 82/126/90
f 91/143/91 100/156/91 101/157/91 92/144/91
f 92/144/92 101/157/92 102/158/92 93/145/92
f 93/145/93 102/158/93 103/159/93 94/146/93
f 94/146/94 103/159/94 104/160/94 95/147/94
f 95/149/95 104/161/95 105/162/95 96/150/95
f 96/150/96 105/162/96 106/163/96 97/153/96
f 97/153/97 106/163/97 107/164/97 98/154/97
f 98/154/98 107/164/98 108/165/98 99/155/98
f 99/155/99 108/165/99 100/156/99 91/143/99
f 100/156/100 1/1/100 2/4/100 101/157/100
f 101/157/101 2/4/101 3/6/101 102/158/101
f 102/158/102 3/6/102 4/8/102 103/159/102
f 103/159/103 4/8/103 5/13/103 104/160/103
f 104/161/104 5/166/104 119/167/104 110/168/104 115/169/104 6/18/104 105/162/104
f 105/162/105 6/18/105 7/22/105 106/163/105
f 106/163/106 7/22/106 8/24/106 107/164/106
f 107/164/107 8/24/107 9/26/107 108/165/107
f 108/165/108 9/26/108 1/1/108 100/156/108
f 128/170/109 122/171/109 112/20/109 121/19/109
f 127/172/109 123/173/109 113/174/109 124/175/109
f 126/176/5 120/36/5 111/35/5 125/177/5
f 123/173/109 126/176/109 125/177/109 113/174/109
f 109/178/109 114/179/109 126/176/109 123/173/109
f 114/179/5 14/32/5 120/36/5 126/176/5
f 119/167/110 127/172/110 124/175/110 110/168/110
f 5/166/110 118/180/110 127/172/110 119/167/110
f 118/180/109 109/178/109 123/173/109 127/172/109
f 115/169/110 128/170/110 121/19/110 6/18/110
f 110/168/110 124/175/110 128/170/110 115/169/110
f 124/175/109 113/174/109 122/171/109 128/170/109
f 122/171/109 129/14/109 117/17/109 112/20/109
f 113/174/109 125/177/109 129/14/109 122/171/109
f 125/177/5 111/35/5 116/15/5 129/14/5
f 149/181/111 143/182/111 133/139/111 142/138/111
f 148/183/111 144/184/111 134/185/111 145/186/111
f 147/187/77 141/152/77 132/151/77 146/188/77
f 144/184/111 147/187/111 146/188/111 134/185/111
f 131/189/111 136/190/111 147/187/111 144/184/111
f 136/190/77 86/148/77 141/152/77 147/187/77
f 139/119/112 148/183/112 145/186/112 130/120/112
f 77/118/112 140/191/112 148/183/112 139/119/112
f 140/191/111 131/189/111 144/184/111 148/183/111
f 135/121/112 149/181/112 142/138/112 78/122/112
f 130/120/112 145/186/112 149/181/112 135/121/112
f 145/186/111 134/185/111 143/182/111 149/181/111
f 143/182/111 150/134/111 138/137/111 133/139/111
f 134/185/111 146/188/111 150/134/111 143/182/111
f 146/188/77 132/151/77 137/135/77 150/134/77
f 170/192/113 164/193/113 154/76/113 163/75/113
f 169/194/113 165/195/113 155/196/113 166/197/113
f 168/198/41 162/89/41 153/88/41 167/199/41
f 165/195/113 168/198/113 167/199/113 155/196/113
f 152/200/113 157/201/113 168/198/113 165/195/113
f 157/201/41 50/85/41 162/89/41 168/198/41
f 160/56/114 169/194/114 166/197/114 151/57/114
f 41/55/114 161/202/114 169/194/114 160/56/114
f 161/202/113 152/200/113 165/195/113 169/194/113
f 156/58/114 170/192/114 163/75/114 42/59/114
f 151/57/114 166/197/114 170/192/114 156/58/114
f 166/197/113 155/196/113 164/193/113 170/192/113
f 164/193/113 171/71/113 159/74/113 154/76/113
f 155/196/113 167/199/113 171/71/113 164/193/113
f 167/199/41 153/88/41 158/72/41 171/71/41
f 172/203/115 173/84/115 175/204/115 174/205/115
f 174/205/116 175/204/116 177/206/116 176/207/116
f 176/207/117 177/206/117 179/208/117 178/209/117
f 178/209/118 179/208/118 181/69/118 180/210/118
f 180/210/119 181/69/119 183/211/119 182/212/119
f 182/212/120 183/211/120 185/213/120 184/214/120
f 184/214/121 185/213/121 187/215/121 186/216/121
f 186/216/122 187/215/122 189/44/122 188/217/122
f 188/217/123 189/44/123 191/218/123 190/219/123
f 190/219/124 191/218/124 193/220/124 192/221/124
f 192/221/125 193/220/125 195/222/125 194/223/125
f 194/223/126 195/222/126 197/224/126 196/225/126
f 196/225/127 197/224/127 199/226/127 198/227/127
f 198/227/128 199/226/128 201/10/128 200/228/128
f 200/228/129 201/10/129 203/229/129 202/230/129
f 202/230/130 203/229/130 205/13/130 204/231/130
f 204/231/131 205/13/131 207/232/131 206/233/131
f 206/233/132 207/232/132 209/234/132 208/235/132
f 208/235/133 209/234/133 211/236/133 210/237/133
f 210/237/134 211/236/134 213/238/134 212/239/134
f 212/239/135 213/238/135 215/240/135 214/241/135
f 214/241/136 215/240/136 217/242/136 216/243/136
f 216/243/137 217/242/137 219/244/137 218/245/137
f 218/245/138 219/244/138 221/130/138 220/246/138
f 220/246/139 221/130/139 223/247/139 222/248/139
f 222/248/140 223/247/140 225/133/140 224/249/140
f 224/249/141 225/133/141 227/250/141 226/251/141
f 226/251/142 227/250/142 229/252/142 228/253/142
f 228/253/143 229/252/143 231/254/143 230/255/143
f 230/255/144 231/254/144 233/256/144 232/257/144
f 175/258/145 173/259/145 235/260/145 233/261/145 231/262/145 229/263/145 227/264/145 225/265/145 223/266/145 221/267/145 219/268/145 217/269/145 215/270/145 213/271/145 211/272/145 209/273/145 207/274/145 205/275/145 203/276/145 201/277/145 199/278/145 197/279/145 195/280/145 193/281/145 191/282/145 189/283/145 187/284/145 185/285/145 183/286/145 181/287/145 179/288/145 177/289/145
f 232/257/146 233/256/146 235/290/146 234/291/146
f 234/291/147 235/290/147 173/292/147 172/293/147
f 172/294/148 174/295/148 176/296/148 178/297/148 180/298/148 182/299/148 184/300/148 186/301/148 188/302/148 190/303/148 192/304/148 194/305/148 196/306/148 198/307/148 200/308/148 202/309/148 204/310/148 206/311/148 208/312/148 210/313/148 212/314/148 214/315/148 216/316/148 218/317/148 220/318/148 222/319/148 224/320/148 226/321/148 228/322/148 230/323/148 232/324/148 234/325/148
o Cylinder
v 0.000000 -0.759224 -0.260053
v 0.000000 0.169666 -0.260053
v 0.050734 -0.759224 -0.255056
v 0.050734 0.169666 -0.255056
v 0.099518 -0.759224 -0.240257
v 0.099518 0.169666 -0.240257
v 0.144478 -0.759224 -0.216226
v 0.144478 0.169666 -0.216226
v 0.183885 -0.759224 -0.183885
v 0.183885 0.169666 -0.183885
v 0.216226 -0.759224 -0.144478
v 0.216226 0.169666 -0.144478
v 0.240257 -0.759224 -0.099518
v 0.240257 0.169666 -0.099518
v 0.255056 -0.759224 -0.050734
v 0.255056 0.169666 -0.050734
v 0.260053 -0.759224 0.000000
v 0.260053 0.169666 0.000000
v 0.255056 -0.759224 0.050734
v 0.255056 0.169666 0.050734
v 0.240257 -0.759224 0.099518
v 0.240257 0.169666 0.099518
v 0.216226 -0.759224 0.144478
v 0.216226 0.169666 0.144478
v 0.183885 -0.759224 0.183885
v 0.183885 0.169666 0.183885
v 0.144478 -0.759224 0.216226
v 0.144478 0.169666 0.216226
v 0.099518 -0.759224 0.240257
v 0.099518 0.169666 0.240257
v 0.050734 -0.759224 0.255056
v 0.050734 0.169666 0.255056
v 0.000000 -0.759224 0.260053
v 0.000000 0.169666 0.260053
v -0.050734 -0.759224 0.255056
v -0.050734 0.169666 0.255056
v -0.099518 -0.759224 0.240257
v -0.099518 0.169666 0.240257
v -0.144478 -0.759224 0.216226
v -0.144478 0.169666 0.216226
v -0.183885 -0.759224 0.183885
v -0.183885 0.169666 0.183885
v -0.216226 -0.759224 0.144478
v -0.216226 0.169666 0.144478
v -0.240257 -0.759224 0.099518
v -0.240257 0.169666 0.099518
v -0.255056 -0.759224 0.050734
v -0.255056 0.169666 0.050734
v -0.260053 -0.759224 0.000000
v -0.260053 0.169666 0.000000
v -0.255056 -0.759224 -0.050734
v -0.255056 0.169666 -0.050734
v -0.240257 -0.759224 -0.099518
v -0.240257 0.169666 -0.099518
v -0.216226 -0.759224 -0.144478
v -0.216226 0.169666 -0.144478
v -0.183885 -0.759224 -0.183885
v -0.183885 0.169666 -0.183885
v -0.144478 -0.759224 -0.216226
v -0.144478 0.169666 -0.216226
v -0.099518 -0.759224 -0.240257
v -0.099518 0.169666 -0.240257
v -0.050734 -0.759224 -0.255056
v -0.050734 0.169666 -0.255056
vn 0.0980 -0.0000 -0.9952
vn 0.2903 -0.0000 -0.9569
vn 0.4714 -0.0000 -0.8819
vn 0.6344 -0.0000 -0.7730
vn 0.7730 -0.0000 -0.6344
vn 0.8819 -0.0000 -0.4714
vn 0.9569 -0.0000 -0.2903
vn 0.9952 -0.0000 -0.0980
vn 0.9952 -0.0000 0.0980
vn 0.9569 -0.0000 0.2903
vn 0.8819 -0.0000 0.4714
vn 0.7730 -0.0000 0.6344
vn 0.6344 -0.0000 0.7730
vn 0.4714 -0.0000 0.8819
vn 0.2903 -0.0000 0.9569
vn 0.0980 -0.0000 0.9952
vn -0.0980 -0.0000 0.9952
vn -0.2903 -0.0000 0.9569
vn -0.4714 -0.0000 0.8819
vn -0.6344 -0.0000 0.7730
vn -0.7730 -0.0000 0.6344
vn -0.8819 -0.0000 0.4714
vn -0.9569 -0.0000 0.2903
vn -0.9952 -0.0000 0.0980
vn -0.9952 -0.0000 -0.0980
vn -0.9569 -0.0000 -0.2903
vn -0.8819 -0.0000 -0.4714
vn -0.7730 -0.0000 -0.6344
vn -0.6344 -0.0000 -0.7730
vn -0.4714 -0.0000 -0.8819
vn -0.0000 1.0000 -0.0000
vn -0.2903 -0.0000 -0.9569
vn -0.0980 -0.0000 -0.9952
vn -0.0000 -1.0000 -0.0000
vt 1.000000 0.500000
vt 1.000000 1.000000
vt 0.968750 1.000000
vt 0.968750 0.500000
vt 0.937500 1.000000
vt 0.937500 0.500000
vt 0.906250 1.000000
vt 0.906250 0.500000
vt 0.875000 1.000000
vt 0.875000 0.500000
vt 0.843750 1.000000
vt 0.843750 0.500000
vt 0.812500 1.000000
vt 0.812500 0.500000
vt 0.781250 1.000000
vt 0.781250 0.500000
vt 0.750000 1.000000
vt 0.750000 0.500000
vt 0.718750 1.000000
vt 0.718750 0.500000
vt 0.687500 1.000000
vt 0.687500 0.500000
vt 0.656250 1.000000
vt 0.656250 0.500000
vt 0.625000 1.000000
vt 0.625000 0.500000
vt 0.593750 1.000000
vt 0.593750 0.500000
vt 0.562500 1.000000
vt 0.562500 0.500000
vt 0.531250 1.000000
vt 0.531250 0.500000
vt 0.500000 1.000000
vt 0.500000 0.500000
vt 0.468750 1.000000
vt 0.468750 0.500000
vt 0.437500 1.000000
vt 0.437500 0.500000
vt 0.406250 1.000000
vt 0.406250 0.500000
vt 0.375000 1.000000
vt 0.375000 0.500000
vt 0.343750 1.000000
vt 0.343750 0.500000
vt 0.312500 1.000000
vt 0.312500 0.500000
vt 0.281250 1.000000
vt 0.281250 0.500000
vt 0.250000 1.000000
vt 0.250000 0.500000
vt 0.218750 1.000000
vt 0.218750 0.500000
vt 0.187500 1.000000
vt 0.187500 0.500000
vt 0.156250 1.000000
vt 0.156250 0.500000
vt 0.125000 1.000000
vt 0.125000 0.500000
vt 0.093750 1.000000
vt 0.093750 0.500000
vt 0.062500 1.000000
vt 0.062500 0.500000
vt 0.296822 0.485388
vt 0.250000 0.490000
vt 0.203178 0.485388
vt 0.158156 0.471731
vt 0.116663 0.449553
vt 0.080294 0.419706
vt 0.050447 0.383337
vt 0.028269 0.341844
vt 0.014612 0.296822
vt 0.010000 0.250000
vt 0.014612 0.203178
vt 0.028269 0.158156
vt 0.050447 0.116663
vt 0.080294 0.080294
vt 0.116663 0.050447
vt 0.158156 0.028269
vt 0.203178 0.014612
vt 0.250000 0.010000
vt 0.296822 0.014612
vt 0.341844 0.028269
vt 0.383337 0.050447
vt 0.419706 0.080294
vt 0.449553 0.116663
vt 0.471731 0.158156
vt 0.485388 0.203178
vt 0.490000 0.250000
vt 0.485388 0.296822
vt 0.471731 0.341844
vt 0.449553 0.383337
vt 0.419706 0.419706
vt 0.383337 0.449553
vt 0.341844 0.471731
vt 0.031250 1.000000
vt 0.031250 0.500000
vt 0.000000 1.000000
vt 0.000000 0.500000
vt 0.750000 0.490000
vt 0.796822 0.485388
vt 0.841844 0.471731
vt 0.883337 0.449553
vt 0.919706 0.419706
vt 0.949553 0.383337
vt 0.971731 0.341844
vt 0.985388 0.296822
vt 0.990000 0.250000
vt 0.985388 0.203178
vt 0.971731 0.158156
vt 0.949553 0.116663
vt 0.919706 0.080294
vt 0.883337 0.050447
vt 0.841844 0.028269
vt 0.796822 0.014612
vt 0.750000 0.010000
vt 0.703178 0.014612
vt 0.658156 0.028269
vt 0.616663 0.050447
vt 0.580294 0.080294
vt 0.550447 0.116663
vt 0.528269 0.158156
vt 0.514612 0.203178
vt 0.510000 0.250000
vt 0.514612 0.296822
vt 0.528269 0.341844
vt 0.550447 0.383337
vt 0.580294 0.419706
vt 0.616663 0.449553
vt 0.658156 0.471731
vt 0.703178 0.485388
s 0
usemtl Material.002
f 236/326/149 237/327/149 239/328/149 238/329/149
f 238/329/150 239/328/150 241/330/150 240/331/150
f 240/331/151 241/330/151 243/332/151 242/333/151
f 242/333/152 243/332/152 245/334/152 244/335/152
f 244/335/153 245/334/153 247/336/153 246/337/153
f 246/337/154 247/336/154 249/338/154 248/339/154
f 248/339/155 249/338/155 251/340/155 250/341/155
f 250/341/156 251/340/156 253/342/156 252/343/156
f 252/343/157 253/342/157 255/344/157 254/345/157
f 254/345/158 255/344/158 257/346/158 256/347/158
f 256/347/159 257/346/159 259/348/159 258/349/159
f 258/349/160 259/348/160 261/350/160 260/351/160
f 260/351/161 261/350/161 263/352/161 262/353/161
f 262/353/162 263/352/162 265/354/162 264/355/162
f 264/355/163 265/354/163 267/356/163 266/357/163
f 266/357/164 267/356/164 269/358/164 268/359/164
f 268/359/165 269/358/165 271/360/165 270/361/165
f 270/361/166 271/360/166 273/362/166 272/363/166
f 272/363/167 273/362/167 275/364/167 274/365/167
f 274/365/168 275/364/168 277/366/168 276/367/168
f 276/367/169 277/366/169 279/368/169 278/369/169
f 278/369/170 279/368/170 281/370/170 280/371/170
f 280/371/171 281/370/171 283/372/171 282/373/171
f 282/373/172 283/372/172 285/374/172 284/375/172
f 284/375/173 285/374/173 287/376/173 286/377/173
f 286/377/174 287/376/174 289/378/174 288/379/174
f 288/379/175 289/378/175 291/380/175 290/381/175
f 290/381/176 291/380/176 293/382/176 292/383/176
f 292/383/177 293/382/177 295/384/177 294/385/177
f 294/385/178 295/384/178 297/386/178 296/387/178
f 239/388/179 237/389/179 299/390/179 297/391/179 295/392/179 293/393/179 291/394/179 289/395/179 287/396/179 285/397/179 283/398/179 281/399/179 279/400/179 277/401/179 275/402/179 273/403/179 271/404/179 269/405/179 267/406/179 265/407/179 263/408/179 261/409/179 259/410/179 257/411/179 255/412/179 253/413/179 251/414/179 249/415/179 247/416/179 245/417/179 243/418/179 241/419/179
f 296/387/180 297/386/180 299/420/180 298/421/180
f 298/421/181 299/420/181 237/422/181 236/423/181
f 236/424/182 238/425/182 240/426/182 242/427/182 244/428/182 246/429/182 248/430/182 250/431/182 252/432/182 254/433/182 256/434/182 258/435/182 260/436/182 262/437/182 264/438/182 266/439/182 268/440/182 270/441/182 272/442/182 274/443/182 276/444/182 278/445/182 280/446/182 282/447/182 284/448/182 286/449/182 288/450/182 290/451/182 292/452/182 294/453/182 296/454/182 298/455/182
